<?xml version="1.0" encoding="UTF-8" standalone="no"?>
<!-- Created with Inkscape (http://www.inkscape.org/) -->

<svg
   width="84.966591mm"
   height="4.9244223mm"
   viewBox="0 0 84.966593 4.9244223"
   version="1.1"
   id="svg5"
   sodipodi:docname="email.svg"
   inkscape:version="1.2.2 (b0a8486541, 2022-12-01)"
   xmlns:inkscape="http://www.inkscape.org/namespaces/inkscape"
   xmlns:sodipodi="http://sodipodi.sourceforge.net/DTD/sodipodi-0.dtd"
   xmlns="http://www.w3.org/2000/svg"
   xmlns:svg="http://www.w3.org/2000/svg">
  <sodipodi:namedview
     id="namedview7"
     pagecolor="#ffffff"
     bordercolor="#666666"
     borderopacity="1.0"
     inkscape:showpageshadow="2"
     inkscape:pageopacity="0.0"
     inkscape:pagecheckerboard="0"
     inkscape:deskcolor="#d1d1d1"
     inkscape:document-units="mm"
     showgrid="false"
     inkscape:zoom="1.550054"
     inkscape:cx="235.79823"
     inkscape:cy="-22.579858"
     inkscape:window-width="1920"
     inkscape:window-height="1005"
     inkscape:window-x="0"
     inkscape:window-y="0"
     inkscape:window-maximized="1"
     inkscape:current-layer="layer1" />
  <defs
     id="defs2" />
  <g
     inkscape:label="Layer 1"
     inkscape:groupmode="layer"
     id="layer1"
     transform="translate(-23.542151,-39.304361)">
    <path
       d="m 25.841379,39.653611 c 0,-0.34925 -0.465667,-0.34925 -0.5588,-0.34925 -0.465666,0 -0.91387,0.267758 -0.91387,0.77417 v 0.308504 h -0.582083 c -0.09313,0 -0.238654,0 -0.238654,0.180446 0,0.174625 0.145521,0.174625 0.232833,0.174625 h 0.587904 v 1.798636 h -0.587904 c -0.08731,0 -0.238654,0 -0.238654,0.174625 0,0.180446 0.151342,0.180446 0.238654,0.180446 h 1.577445 c 0.08731,0 0.238654,0 0.238654,-0.174625 0,-0.180446 -0.151342,-0.180446 -0.238654,-0.180446 h -0.587904 v -1.798636 h 0.710141 c 0.08731,0 0.232833,0 0.232833,-0.174625 0,-0.180446 -0.139699,-0.180446 -0.232833,-0.180446 h -0.710141 v -0.273579 c 0,-0.454024 0.389996,-0.454024 0.564621,-0.454024 0,0.02328 0.05239,0.250295 0.256116,0.250295 0.116417,0 0.250296,-0.09313 0.250296,-0.256116 z"
       style="font-size:5.82083px;line-height:1.25;font-family:'Latin Modern Mono';-inkscape-font-specification:'Latin Modern Mono';stroke-width:0.264583"
       id="path619" />
    <path
       d="m 29.054475,42.261343 c 0,-0.162984 -0.168804,-0.162984 -0.203729,-0.162984 -0.104775,0 -0.151342,0.01746 -0.192088,0.128059 -0.128058,0.296862 -0.442383,0.349249 -0.605366,0.349249 -0.436562,0 -0.873125,-0.291041 -0.966258,-0.791633 h 1.734607 c 0.122238,0 0.232834,0 0.232834,-0.21537 0,-0.663575 -0.372533,-1.234016 -1.129241,-1.234016 -0.692679,0 -1.251479,0.582083 -1.251479,1.298045 0,0.710141 0.587904,1.298045 1.338791,1.298045 0.76835,0 1.041929,-0.523875 1.041929,-0.669395 z m -0.413279,-0.826558 h -1.548341 c 0.08149,-0.424921 0.424921,-0.745067 0.832379,-0.745067 0.302683,0 0.663574,0.145521 0.715962,0.745067 z"
       style="font-size:5.82083px;line-height:1.25;font-family:'Latin Modern Mono';-inkscape-font-specification:'Latin Modern Mono';stroke-width:0.264583"
       id="path621" />
    <path
       d="m 32.244287,40.713002 c 0,-0.116417 -0.06985,-0.360892 -0.552979,-0.360892 -0.296862,0 -0.669395,0.104775 -0.989541,0.471488 v -0.197909 c 0,-0.180445 -0.03493,-0.238654 -0.232833,-0.238654 h -0.640291 c -0.08731,0 -0.232833,0 -0.232833,0.174625 0,0.180446 0.1397,0.180446 0.232833,0.180446 h 0.471487 v 1.798636 h -0.471487 c -0.08731,0 -0.232833,0 -0.232833,0.174625 0,0.180446 0.1397,0.180446 0.232833,0.180446 h 1.519236 c 0.08731,0 0.238654,0 0.238654,-0.174625 0,-0.180446 -0.151341,-0.180446 -0.238654,-0.180446 h -0.646112 v -0.727603 c 0,-0.547158 0.343429,-1.105958 1.04775,-1.105958 0.0058,0.1397 0.104775,0.256116 0.250295,0.256116 0.128059,0 0.244475,-0.09313 0.244475,-0.250295 z"
       style="font-size:5.82083px;line-height:1.25;font-family:'Latin Modern Mono';-inkscape-font-specification:'Latin Modern Mono';stroke-width:0.264583"
       id="path623" />
    <path
       d="m 35.445742,42.715367 c 0,-0.174625 -0.151342,-0.174625 -0.232833,-0.174625 H 34.950971 V 39.57794 c 0,-0.180446 -0.03493,-0.238654 -0.232833,-0.238654 h -0.42492 c -0.09313,0 -0.238654,0 -0.238654,0.180446 0,0.174625 0.151341,0.174625 0.232833,0.174625 h 0.261937 v 0.919691 c -0.192087,-0.168804 -0.430741,-0.261938 -0.681037,-0.261938 -0.63447,0 -1.19327,0.552979 -1.19327,1.292225 0,0.721782 0.523875,1.286403 1.140883,1.286403 0.325966,0 0.570441,-0.157162 0.733424,-0.325967 0,0.20955 0,0.291042 0.232833,0.291042 h 0.424921 c 0.09313,0 0.238654,0 0.238654,-0.180446 z m -0.896408,-0.948795 c 0,0.325966 -0.261937,0.809095 -0.710141,0.809095 -0.413279,0 -0.762529,-0.413279 -0.762529,-0.931332 0,-0.5588 0.407458,-0.937154 0.814916,-0.937154 0.372533,0 0.657754,0.325966 0.657754,0.646112 z"
       style="font-size:5.82083px;line-height:1.25;font-family:'Latin Modern Mono';-inkscape-font-specification:'Latin Modern Mono';stroke-width:0.264583"
       id="path625" />
    <path
       d="m 38.169888,42.721188 c 0,-0.180446 -0.151342,-0.180446 -0.238654,-0.180446 h -0.611188 v -1.915053 c 0,-0.180445 -0.03493,-0.238654 -0.232833,-0.238654 h -0.826558 c -0.08731,0 -0.238654,0 -0.238654,0.174625 0,0.180446 0.151342,0.180446 0.238654,0.180446 h 0.657754 v 1.798636 h -0.70432 c -0.09313,0 -0.238654,0 -0.238654,0.180446 0,0.174625 0.151341,0.174625 0.238654,0.174625 h 1.717145 c 0.08731,0 0.238654,0 0.238654,-0.174625 z M 37.34333,39.665252 c 0,-0.162983 -0.128059,-0.291041 -0.291042,-0.291041 -0.162983,0 -0.291041,0.128058 -0.291041,0.291041 0,0.162984 0.128058,0.291042 0.291041,0.291042 0.162983,0 0.291042,-0.128058 0.291042,-0.291042 z"
       style="font-size:5.82083px;line-height:1.25;font-family:'Latin Modern Mono';-inkscape-font-specification:'Latin Modern Mono';stroke-width:0.264583"
       id="path627" />
    <path
       d="m 41.557608,42.721188 c 0,-0.180446 -0.145521,-0.180446 -0.238654,-0.180446 H 41.062837 V 41.19031 c 0,-0.587904 -0.296862,-0.8382 -0.756708,-0.8382 -0.389995,0 -0.651932,0.197909 -0.762528,0.308504 0,-0.186266 0,-0.273579 -0.232833,-0.273579 h -0.424921 c -0.09313,0 -0.238654,0 -0.238654,0.180446 0,0.174625 0.151342,0.174625 0.232833,0.174625 h 0.261937 v 1.798636 h -0.256116 c -0.09313,0 -0.238654,0 -0.238654,0.180446 0,0.174625 0.151342,0.174625 0.232833,0.174625 h 0.925512 c 0.08149,0 0.232833,0 0.232833,-0.174625 0,-0.180446 -0.14552,-0.180446 -0.238654,-0.180446 h -0.256116 v -1.030287 c 0,-0.582083 0.430741,-0.803274 0.727603,-0.803274 0.308504,0 0.389996,0.162983 0.389996,0.512233 v 1.321328 h -0.227012 c -0.09313,0 -0.238654,0 -0.238654,0.180446 0,0.174625 0.157162,0.174625 0.238654,0.174625 h 0.890587 c 0.08149,0 0.232833,0 0.232833,-0.174625 z"
       style="font-size:5.82083px;line-height:1.25;font-family:'Latin Modern Mono';-inkscape-font-specification:'Latin Modern Mono';stroke-width:0.264583"
       id="path629" />
    <path
       d="m 44.683393,42.715367 c 0,-0.174625 -0.145521,-0.174625 -0.232833,-0.174625 -0.244475,0 -0.302684,-0.0291 -0.34925,-0.04657 v -1.2573 c 0,-0.413278 -0.314325,-0.902228 -1.152525,-0.902228 -0.250295,0 -0.84402,0 -0.84402,0.42492 0,0.174625 0.122238,0.267759 0.261937,0.267759 0.08731,0 0.250296,-0.05239 0.256117,-0.267759 0,-0.04657 0.0058,-0.05239 0.122237,-0.06403 0.08149,-0.0058 0.157163,-0.0058 0.20955,-0.0058 0.442383,0 0.745066,0.180446 0.745066,0.593725 -1.030286,0.01746 -1.746248,0.308504 -1.746248,0.867304 0,0.401637 0.366712,0.779991 0.960436,0.779991 0.215371,0 0.576263,-0.04075 0.849842,-0.221192 0.128058,0.180446 0.407458,0.186267 0.628649,0.186267 0.162983,0 0.291042,0 0.291042,-0.180446 z m -0.983721,-0.599545 c 0,0.133879 0,0.256116 -0.227012,0.360891 -0.20955,0.09895 -0.471487,0.09895 -0.518054,0.09895 -0.360891,0 -0.599545,-0.197908 -0.599545,-0.42492 0,-0.285221 0.500591,-0.500592 1.344611,-0.523875 z"
       style="font-size:5.82083px;line-height:1.25;font-family:'Latin Modern Mono';-inkscape-font-specification:'Latin Modern Mono';stroke-width:0.264583"
       id="path631" />
    <path
       d="m 47.669476,42.721188 c 0,-0.180446 -0.145521,-0.180446 -0.238654,-0.180446 H 47.174705 V 41.19031 c 0,-0.587904 -0.296862,-0.8382 -0.756708,-0.8382 -0.389995,0 -0.651933,0.197909 -0.762528,0.308504 0,-0.186266 0,-0.273579 -0.232834,-0.273579 h -0.42492 c -0.09313,0 -0.238654,0 -0.238654,0.180446 0,0.174625 0.151341,0.174625 0.232833,0.174625 h 0.261937 v 1.798636 h -0.256116 c -0.09313,0 -0.238654,0 -0.238654,0.180446 0,0.174625 0.151341,0.174625 0.232833,0.174625 h 0.925512 c 0.08149,0 0.232833,0 0.232833,-0.174625 0,-0.180446 -0.145521,-0.180446 -0.238654,-0.180446 h -0.256116 v -1.030287 c 0,-0.582083 0.430741,-0.803274 0.727603,-0.803274 0.308504,0 0.389996,0.162983 0.389996,0.512233 v 1.321328 h -0.227012 c -0.09313,0 -0.238654,0 -0.238654,0.180446 0,0.174625 0.157162,0.174625 0.238654,0.174625 h 0.890587 c 0.08149,0 0.232833,0 0.232833,-0.174625 z"
       style="font-size:5.82083px;line-height:1.25;font-family:'Latin Modern Mono';-inkscape-font-specification:'Latin Modern Mono';stroke-width:0.264583"
       id="path633" />
    <path
       d="m 50.725409,42.715367 c 0,-0.174625 -0.151342,-0.174625 -0.232833,-0.174625 H 50.230638 V 39.57794 c 0,-0.180446 -0.03493,-0.238654 -0.232833,-0.238654 h -0.424921 c -0.09313,0 -0.238654,0 -0.238654,0.180446 0,0.174625 0.151342,0.174625 0.232834,0.174625 h 0.261937 v 0.919691 C 49.636914,40.445244 49.39826,40.35211 49.147964,40.35211 c -0.634471,0 -1.19327,0.552979 -1.19327,1.292225 0,0.721782 0.523874,1.286403 1.140882,1.286403 0.325967,0 0.570442,-0.157162 0.733425,-0.325967 0,0.20955 0,0.291042 0.232833,0.291042 h 0.424921 c 0.09313,0 0.238654,0 0.238654,-0.180446 z m -0.896408,-0.948795 c 0,0.325966 -0.261937,0.809095 -0.710141,0.809095 -0.413279,0 -0.762529,-0.413279 -0.762529,-0.931332 0,-0.5588 0.407458,-0.937154 0.814916,-0.937154 0.372533,0 0.657754,0.325966 0.657754,0.646112 z"
       style="font-size:5.82083px;line-height:1.25;font-family:'Latin Modern Mono';-inkscape-font-specification:'Latin Modern Mono';stroke-width:0.264583"
       id="path635" />
    <path
       d="m 52.692847,42.534922 c 0,-0.215371 -0.174625,-0.366713 -0.360892,-0.366713 -0.221191,0 -0.366712,0.180446 -0.366712,0.360892 0,0.21537 0.174625,0.366712 0.360891,0.366712 0.221192,0 0.366713,-0.180446 0.366713,-0.360891 z"
       style="font-size:5.82083px;line-height:1.25;font-family:'Latin Modern Mono';-inkscape-font-specification:'Latin Modern Mono';stroke-width:0.264583"
       id="path637" />
    <path
       d="m 56.813991,40.56166 c 0,-0.174625 -0.139699,-0.174625 -0.244474,-0.174625 h -0.669396 c -0.104775,0 -0.244475,0 -0.244475,0.174625 0,0.180446 0.133879,0.180446 0.244475,0.180446 h 0.285221 L 55.8943,42.476713 h -0.0058 c -0.02328,-0.151341 -0.09896,-0.4191 -0.168805,-0.657754 -0.104774,-0.366712 -0.122237,-0.430741 -0.325966,-0.430741 -0.05821,0 -0.168804,0 -0.232833,0.128058 -0.01746,0.04075 -0.250296,0.844021 -0.273579,0.960437 h -0.0058 l -0.302683,-1.734607 h 0.28522 c 0.104775,0 0.244475,0 0.244475,-0.174625 0,-0.180446 -0.133879,-0.180446 -0.244475,-0.180446 h -0.669395 c -0.104775,0 -0.244475,0 -0.244475,0.174625 0,0.180446 0.122238,0.180446 0.296862,0.180446 l 0.34925,1.955799 c 0.02328,0.133879 0.04075,0.221191 0.273579,0.221191 0.232833,0 0.250296,-0.05239 0.355071,-0.407458 0.145521,-0.512233 0.151341,-0.593724 0.168804,-0.721783 h 0.0058 c 0.0291,0.302683 0.244475,0.983721 0.267758,1.030287 0.06985,0.09895 0.174625,0.09895 0.244475,0.09895 0.215371,0 0.232833,-0.09313 0.256116,-0.221191 l 0.34925,-1.955799 c 0.174625,0 0.296862,0 0.296862,-0.180446 z"
       style="font-size:5.82083px;line-height:1.25;font-family:'Latin Modern Mono';-inkscape-font-specification:'Latin Modern Mono';stroke-width:0.264583"
       id="path639" />
    <path
       d="m 59.96306,42.715367 c 0,-0.174625 -0.145521,-0.174625 -0.232834,-0.174625 -0.244474,0 -0.302683,-0.0291 -0.349249,-0.04657 v -1.2573 c 0,-0.413278 -0.314325,-0.902228 -1.152525,-0.902228 -0.250295,0 -0.84402,0 -0.84402,0.42492 0,0.174625 0.122237,0.267759 0.261937,0.267759 0.08731,0 0.250296,-0.05239 0.256117,-0.267759 0,-0.04657 0.0058,-0.05239 0.122237,-0.06403 0.08149,-0.0058 0.157163,-0.0058 0.20955,-0.0058 0.442383,0 0.745066,0.180446 0.745066,0.593725 -1.030286,0.01746 -1.746249,0.308504 -1.746249,0.867304 0,0.401637 0.366713,0.779991 0.960437,0.779991 0.215371,0 0.576263,-0.04075 0.849842,-0.221192 0.128058,0.180446 0.407458,0.186267 0.628649,0.186267 0.162983,0 0.291042,0 0.291042,-0.180446 z m -0.983721,-0.599545 c 0,0.133879 0,0.256116 -0.227012,0.360891 -0.20955,0.09895 -0.471487,0.09895 -0.518054,0.09895 -0.360891,0 -0.599545,-0.197908 -0.599545,-0.42492 0,-0.285221 0.500591,-0.500592 1.344611,-0.523875 z"
       style="font-size:5.82083px;line-height:1.25;font-family:'Latin Modern Mono';-inkscape-font-specification:'Latin Modern Mono';stroke-width:0.264583"
       id="path641" />
    <path
       d="m 62.931682,40.637331 c 0,-0.133879 -0.110596,-0.314325 -0.42492,-0.314325 -0.06403,0 -0.34925,0.0058 -0.617008,0.203729 -0.09313,-0.06403 -0.296863,-0.174625 -0.564621,-0.174625 -0.547158,0 -0.960437,0.436563 -0.960437,0.931333 0,0.250296 0.09895,0.442383 0.186267,0.552979 -0.06403,0.09313 -0.116417,0.221191 -0.116417,0.395816 0,0.203729 0.08149,0.34925 0.133879,0.4191 -0.430741,0.261937 -0.430741,0.657754 -0.430741,0.721783 0,0.500591 0.611187,0.855662 1.356253,0.855662 0.745066,0 1.356253,-0.360891 1.356253,-0.855662 0,-0.215371 -0.104774,-0.506412 -0.401637,-0.663575 -0.07567,-0.04075 -0.320145,-0.168804 -0.84402,-0.168804 h -0.407458 c -0.04657,0 -0.122238,0 -0.168804,-0.01164 -0.08731,0 -0.122238,0 -0.192088,-0.08149 -0.06403,-0.08149 -0.06985,-0.20955 -0.06985,-0.20955 0,-0.02328 0.01164,-0.104775 0.03492,-0.162983 0.01746,0.01164 0.238654,0.145521 0.523875,0.145521 0.535516,0 0.960437,-0.4191 0.960437,-0.937154 0,-0.174625 -0.05239,-0.343429 -0.151342,-0.506412 0.122238,-0.06985 0.261938,-0.09313 0.337609,-0.09895 0.03493,0.157162 0.168804,0.197908 0.227012,0.197908 0.09895,0 0.232833,-0.06985 0.232833,-0.238654 z m -1.047749,0.646112 c 0,0.331787 -0.256117,0.587904 -0.5588,0.587904 -0.314325,0 -0.5588,-0.273579 -0.5588,-0.582083 0,-0.331787 0.256117,-0.587904 0.5588,-0.587904 0.314325,0 0.5588,0.273579 0.5588,0.582083 z m 0.628649,2.089678 c 0,0.256117 -0.436562,0.506412 -1.018645,0.506412 -0.582083,0 -1.018645,-0.250295 -1.018645,-0.506412 0,-0.104775 0.05239,-0.291041 0.238654,-0.407458 0.145521,-0.09313 0.197908,-0.09313 0.622829,-0.09313 0.518054,0 1.175807,0 1.175807,0.500591 z"
       style="font-size:5.82083px;line-height:1.25;font-family:'Latin Modern Mono';-inkscape-font-specification:'Latin Modern Mono';stroke-width:0.264583"
       id="path643" />
    <path
       d="m 66.005076,42.721188 c 0,-0.180446 -0.145521,-0.180446 -0.238654,-0.180446 H 65.510305 V 41.19031 c 0,-0.587904 -0.296862,-0.8382 -0.756708,-0.8382 -0.389995,0 -0.651933,0.197909 -0.762528,0.308504 0,-0.186266 0,-0.273579 -0.232834,-0.273579 h -0.42492 c -0.09313,0 -0.238654,0 -0.238654,0.180446 0,0.174625 0.151341,0.174625 0.232833,0.174625 h 0.261937 v 1.798636 h -0.256116 c -0.09313,0 -0.238654,0 -0.238654,0.180446 0,0.174625 0.151341,0.174625 0.232833,0.174625 h 0.925512 c 0.08149,0 0.232833,0 0.232833,-0.174625 0,-0.180446 -0.145521,-0.180446 -0.238654,-0.180446 h -0.256116 v -1.030287 c 0,-0.582083 0.430741,-0.803274 0.727603,-0.803274 0.308504,0 0.389996,0.162983 0.389996,0.512233 v 1.321328 h -0.227012 c -0.09313,0 -0.238655,0 -0.238655,0.180446 0,0.174625 0.157163,0.174625 0.238655,0.174625 h 0.890586 c 0.08149,0 0.232834,0 0.232834,-0.174625 z"
       style="font-size:5.82083px;line-height:1.25;font-family:'Latin Modern Mono';-inkscape-font-specification:'Latin Modern Mono';stroke-width:0.264583"
       id="path645" />
    <path
       d="m 68.781611,42.261343 c 0,-0.162984 -0.168804,-0.162984 -0.203729,-0.162984 -0.104775,0 -0.151342,0.01746 -0.192088,0.128059 -0.128058,0.296862 -0.442383,0.349249 -0.605366,0.349249 -0.436562,0 -0.873124,-0.291041 -0.966258,-0.791633 h 1.734608 c 0.122237,0 0.232833,0 0.232833,-0.21537 0,-0.663575 -0.372533,-1.234016 -1.129241,-1.234016 -0.692679,0 -1.251479,0.582083 -1.251479,1.298045 0,0.710141 0.587904,1.298045 1.338791,1.298045 0.76835,0 1.041929,-0.523875 1.041929,-0.669395 z m -0.413279,-0.826558 h -1.548341 c 0.08149,-0.424921 0.424921,-0.745067 0.832379,-0.745067 0.302683,0 0.663574,0.145521 0.715962,0.745067 z"
       style="font-size:5.82083px;line-height:1.25;font-family:'Latin Modern Mono';-inkscape-font-specification:'Latin Modern Mono';stroke-width:0.264583"
       id="path647" />
    <path
       d="m 71.971421,40.713002 c 0,-0.116417 -0.06985,-0.360892 -0.552979,-0.360892 -0.296862,0 -0.669395,0.104775 -0.989541,0.471488 v -0.197909 c 0,-0.180445 -0.03493,-0.238654 -0.232833,-0.238654 h -0.640291 c -0.08731,0 -0.232834,0 -0.232834,0.174625 0,0.180446 0.1397,0.180446 0.232834,0.180446 h 0.471487 v 1.798636 h -0.471487 c -0.08731,0 -0.232834,0 -0.232834,0.174625 0,0.180446 0.1397,0.180446 0.232834,0.180446 h 1.519236 c 0.08731,0 0.238654,0 0.238654,-0.174625 0,-0.180446 -0.151341,-0.180446 -0.238654,-0.180446 h -0.646112 v -0.727603 c 0,-0.547158 0.343429,-1.105958 1.047749,-1.105958 0.0058,0.1397 0.104775,0.256116 0.250296,0.256116 0.128058,0 0.244475,-0.09313 0.244475,-0.250295 z"
       style="font-size:5.82083px;line-height:1.25;font-family:'Latin Modern Mono';-inkscape-font-specification:'Latin Modern Mono';stroke-width:0.264583"
       id="path649" />
    <path
       d="m 74.98661,42.430147 c 0,-0.162984 -0.162983,-0.162984 -0.221192,-0.162984 -0.09895,0 -0.116416,0 -0.174624,0.05821 -0.203729,0.186266 -0.424921,0.250295 -0.622829,0.250295 -0.62865,0 -1.19327,-0.628649 -1.19327,-1.455207 0,-0.867304 0.587903,-1.461028 1.187449,-1.461028 0.162983,0 0.424921,0.05821 0.5588,0.413279 -0.01746,-0.01164 -0.180446,-0.116417 -0.372533,-0.116417 -0.465667,0 -0.844021,0.500591 -0.844021,1.158345 0,0.692679 0.407458,1.164166 0.8382,1.164166 0.28522,0 0.84402,-0.244475 0.84402,-1.251478 0,-0.378354 0,-1.722966 -1.024466,-1.722966 -0.791633,0 -1.513416,0.762529 -1.513416,1.810278 0,1.041929 0.710141,1.816099 1.525058,1.816099 0.523874,0 1.012824,-0.331787 1.012824,-0.500591 z M 74.660644,41.12046 c 0,0.471487 -0.261938,0.803274 -0.512233,0.803274 -0.273579,0 -0.518054,-0.349249 -0.518054,-0.803274 0,-0.48895 0.267758,-0.809095 0.512233,-0.809095 0.261937,0 0.518054,0.337608 0.518054,0.809095 z"
       style="font-size:5.82083px;line-height:1.25;font-family:'Latin Modern Mono';-inkscape-font-specification:'Latin Modern Mono';stroke-width:0.264583"
       id="path651" />
    <path
       d="m 78.228811,42.715367 c 0,-0.174625 -0.151341,-0.174625 -0.232833,-0.174625 h -0.261937 v -1.915053 c 0,-0.180445 -0.03493,-0.238654 -0.232833,-0.238654 h -0.424921 c -0.09313,0 -0.238654,0 -0.238654,0.180446 0,0.174625 0.151342,0.174625 0.232833,0.174625 h 0.261938 v 1.239837 c 0,0.523874 -0.471488,0.593724 -0.657754,0.593724 -0.459846,0 -0.459846,-0.192087 -0.459846,-0.378354 v -1.571624 c 0,-0.180445 -0.03493,-0.238654 -0.232833,-0.238654 h -0.42492 c -0.09313,0 -0.238654,0 -0.238654,0.180446 0,0.174625 0.151341,0.174625 0.232833,0.174625 h 0.261937 v 1.490132 c 0,0.5588 0.401637,0.6985 0.826558,0.6985 0.238654,0 0.477308,-0.05821 0.692679,-0.221192 0.0058,0.186267 0.128058,0.186267 0.232833,0.186267 h 0.42492 c 0.09313,0 0.238654,0 0.238654,-0.180446 z"
       style="font-size:5.82083px;line-height:1.25;font-family:'Latin Modern Mono';-inkscape-font-specification:'Latin Modern Mono';stroke-width:0.264583"
       id="path653" />
    <path
       d="m 81.284743,42.721188 c 0,-0.180446 -0.145521,-0.180446 -0.238654,-0.180446 H 80.789972 V 41.19031 c 0,-0.587904 -0.296862,-0.8382 -0.756708,-0.8382 -0.389995,0 -0.651933,0.197909 -0.762529,0.308504 0,-0.186266 0,-0.273579 -0.232833,-0.273579 h -0.42492 c -0.09313,0 -0.238654,0 -0.238654,0.180446 0,0.174625 0.151341,0.174625 0.232833,0.174625 h 0.261937 v 1.798636 h -0.256116 c -0.09313,0 -0.238654,0 -0.238654,0.180446 0,0.174625 0.151341,0.174625 0.232833,0.174625 h 0.925512 c 0.08149,0 0.232833,0 0.232833,-0.174625 0,-0.180446 -0.145521,-0.180446 -0.238654,-0.180446 h -0.256117 v -1.030287 c 0,-0.582083 0.430742,-0.803274 0.727604,-0.803274 0.308504,0 0.389996,0.162983 0.389996,0.512233 v 1.321328 h -0.227013 c -0.09313,0 -0.238654,0 -0.238654,0.180446 0,0.174625 0.157163,0.174625 0.238654,0.174625 h 0.890587 c 0.08149,0 0.232834,0 0.232834,-0.174625 z"
       style="font-size:5.82083px;line-height:1.25;font-family:'Latin Modern Mono';-inkscape-font-specification:'Latin Modern Mono';stroke-width:0.264583"
       id="path655" />
    <path
       d="m 84.00889,42.721188 c 0,-0.180446 -0.151341,-0.180446 -0.238654,-0.180446 h -0.611187 v -1.915053 c 0,-0.180445 -0.03493,-0.238654 -0.232833,-0.238654 h -0.826558 c -0.08731,0 -0.238654,0 -0.238654,0.174625 0,0.180446 0.151342,0.180446 0.238654,0.180446 h 0.657754 v 1.798636 h -0.704321 c -0.09313,0 -0.238654,0 -0.238654,0.180446 0,0.174625 0.151342,0.174625 0.238654,0.174625 h 1.717145 c 0.08731,0 0.238654,0 0.238654,-0.174625 z m -0.826558,-3.055936 c 0,-0.162983 -0.128058,-0.291041 -0.291041,-0.291041 -0.162983,0 -0.291042,0.128058 -0.291042,0.291041 0,0.162984 0.128059,0.291042 0.291042,0.291042 0.162983,0 0.291041,-0.128058 0.291041,-0.291042 z"
       style="font-size:5.82083px;line-height:1.25;font-family:'Latin Modern Mono';-inkscape-font-specification:'Latin Modern Mono';stroke-width:0.264583"
       id="path657" />
    <path
       d="m 87.140492,41.114639 c 0,-0.203729 -0.203729,-0.203729 -0.273579,-0.203729 h -1.851024 c -0.06985,0 -0.273579,0 -0.273579,0.203729 0,0.203729 0.203729,0.203729 0.273579,0.203729 h 1.851024 c 0.06985,0 0.273579,0 0.273579,-0.203729 z"
       style="font-size:5.82083px;line-height:1.25;font-family:'Latin Modern Mono';-inkscape-font-specification:'Latin Modern Mono';stroke-width:0.264583"
       id="path659" />
    <path
       d="m 90.312847,41.638514 c 0,-0.715962 -0.518053,-1.286404 -1.135061,-1.286404 -0.2794,0 -0.541338,0.104775 -0.739246,0.285221 V 39.57794 c 0,-0.180446 -0.03493,-0.238654 -0.232833,-0.238654 h -0.424921 c -0.09313,0 -0.238654,0 -0.238654,0.180446 0,0.174625 0.151342,0.174625 0.232834,0.174625 h 0.261937 v 2.962802 c 0,0.116417 0,0.238654 0.203729,0.238654 0.197908,0 0.197908,-0.116417 0.197908,-0.261937 0.238654,0.244474 0.48895,0.296862 0.675216,0.296862 0.634471,0 1.199091,-0.552979 1.199091,-1.292224 z m -0.401637,0 c 0,0.558799 -0.407458,0.937153 -0.814916,0.937153 -0.454025,0 -0.657754,-0.512233 -0.657754,-0.791633 v -0.42492 c 0,-0.343429 0.337608,-0.651933 0.704321,-0.651933 0.430741,0 0.768349,0.424921 0.768349,0.931333 z"
       style="font-size:5.82083px;line-height:1.25;font-family:'Latin Modern Mono';-inkscape-font-specification:'Latin Modern Mono';stroke-width:0.264583"
       id="path661" />
    <path
       d="m 93.246541,41.638514 c 0,-0.727604 -0.541337,-1.303866 -1.19327,-1.303866 -0.651933,0 -1.19327,0.576262 -1.19327,1.303866 0,0.739245 0.552979,1.292224 1.19327,1.292224 0.640291,0 1.19327,-0.5588 1.19327,-1.292224 z m -0.401637,-0.04075 c 0,0.541337 -0.360892,0.977899 -0.791633,0.977899 -0.430741,0 -0.791633,-0.436562 -0.791633,-0.977899 0,-0.529696 0.378354,-0.90805 0.791633,-0.90805 0.4191,0 0.791633,0.378354 0.791633,0.90805 z"
       style="font-size:5.82083px;line-height:1.25;font-family:'Latin Modern Mono';-inkscape-font-specification:'Latin Modern Mono';stroke-width:0.264583"
       id="path663" />
    <path
       d="m 96.564409,42.721188 c 0,-0.180446 -0.14552,-0.180446 -0.238654,-0.180446 H 96.069639 V 41.19031 c 0,-0.587904 -0.296862,-0.8382 -0.756708,-0.8382 -0.389996,0 -0.651933,0.197909 -0.762529,0.308504 0,-0.186266 0,-0.273579 -0.232833,-0.273579 h -0.42492 c -0.09313,0 -0.238654,0 -0.238654,0.180446 0,0.174625 0.151341,0.174625 0.232833,0.174625 h 0.261937 v 1.798636 h -0.256116 c -0.09313,0 -0.238654,0 -0.238654,0.180446 0,0.174625 0.151341,0.174625 0.232833,0.174625 h 0.925512 c 0.08149,0 0.232833,0 0.232833,-0.174625 0,-0.180446 -0.145521,-0.180446 -0.238654,-0.180446 h -0.256117 v -1.030287 c 0,-0.582083 0.430742,-0.803274 0.727604,-0.803274 0.308504,0 0.389996,0.162983 0.389996,0.512233 v 1.321328 h -0.227013 c -0.09313,0 -0.238654,0 -0.238654,0.180446 0,0.174625 0.157163,0.174625 0.238654,0.174625 h 0.890587 c 0.08149,0 0.232833,0 0.232833,-0.174625 z"
       style="font-size:5.82083px;line-height:1.25;font-family:'Latin Modern Mono';-inkscape-font-specification:'Latin Modern Mono';stroke-width:0.264583"
       id="path665" />
    <path
       d="m 99.620348,42.721188 c 0,-0.180446 -0.145521,-0.180446 -0.238654,-0.180446 H 99.125578 V 41.19031 c 0,-0.587904 -0.296863,-0.8382 -0.756708,-0.8382 -0.389996,0 -0.651933,0.197909 -0.762529,0.308504 0,-0.186266 0,-0.273579 -0.232833,-0.273579 h -0.424921 c -0.09313,0 -0.238654,0 -0.238654,0.180446 0,0.174625 0.151342,0.174625 0.232833,0.174625 h 0.261938 v 1.798636 h -0.256117 c -0.09313,0 -0.238654,0 -0.238654,0.180446 0,0.174625 0.151342,0.174625 0.232833,0.174625 h 0.925512 c 0.08149,0 0.232834,0 0.232834,-0.174625 0,-0.180446 -0.145521,-0.180446 -0.238654,-0.180446 h -0.256117 v -1.030287 c 0,-0.582083 0.430741,-0.803274 0.727604,-0.803274 0.308504,0 0.389995,0.162983 0.389995,0.512233 v 1.321328 h -0.227012 c -0.09313,0 -0.238654,0 -0.238654,0.180446 0,0.174625 0.157162,0.174625 0.238654,0.174625 h 0.890587 c 0.08149,0 0.232833,0 0.232833,-0.174625 z"
       style="font-size:5.82083px;line-height:1.25;font-family:'Latin Modern Mono';-inkscape-font-specification:'Latin Modern Mono';stroke-width:0.264583"
       id="path667" />
    <path
       d="m 101.58778,42.534922 c 0,-0.215371 -0.17462,-0.366713 -0.36089,-0.366713 -0.22119,0 -0.36671,0.180446 -0.36671,0.360892 0,0.21537 0.17463,0.366712 0.36089,0.366712 0.22119,0 0.36671,-0.180446 0.36671,-0.360891 z"
       style="font-size:5.82083px;line-height:1.25;font-family:'Latin Modern Mono';-inkscape-font-specification:'Latin Modern Mono';stroke-width:0.264583"
       id="path669" />
    <path
       d="m 105.73221,42.715367 c 0,-0.174625 -0.15134,-0.174625 -0.23283,-0.174625 h -0.26194 V 39.57794 c 0,-0.180446 -0.0349,-0.238654 -0.23283,-0.238654 h -0.42492 c -0.0931,0 -0.23866,0 -0.23866,0.180446 0,0.174625 0.15134,0.174625 0.23284,0.174625 h 0.26193 v 0.919691 c -0.19208,-0.168804 -0.43074,-0.261938 -0.68103,-0.261938 -0.63447,0 -1.19327,0.552979 -1.19327,1.292225 0,0.721782 0.52387,1.286403 1.14088,1.286403 0.32596,0 0.57044,-0.157162 0.73342,-0.325967 0,0.20955 0,0.291042 0.23284,0.291042 h 0.42492 c 0.0931,0 0.23865,0 0.23865,-0.180446 z m -0.89641,-0.948795 c 0,0.325966 -0.26193,0.809095 -0.71014,0.809095 -0.41328,0 -0.76253,-0.413279 -0.76253,-0.931332 0,-0.5588 0.40746,-0.937154 0.81492,-0.937154 0.37253,0 0.65775,0.325966 0.65775,0.646112 z"
       style="font-size:5.82083px;line-height:1.25;font-family:'Latin Modern Mono';-inkscape-font-specification:'Latin Modern Mono';stroke-width:0.264583"
       id="path671" />
    <path
       d="m 108.50874,42.261343 c 0,-0.162984 -0.1688,-0.162984 -0.20373,-0.162984 -0.10477,0 -0.15134,0.01746 -0.19208,0.128059 -0.12806,0.296862 -0.44239,0.349249 -0.60537,0.349249 -0.43656,0 -0.87313,-0.291041 -0.96626,-0.791633 h 1.73461 c 0.12224,0 0.23283,0 0.23283,-0.21537 0,-0.663575 -0.37253,-1.234016 -1.12924,-1.234016 -0.69268,0 -1.25148,0.582083 -1.25148,1.298045 0,0.710141 0.58791,1.298045 1.33879,1.298045 0.76835,0 1.04193,-0.523875 1.04193,-0.669395 z m -0.41328,-0.826558 h -1.54834 c 0.0815,-0.424921 0.42492,-0.745067 0.83238,-0.745067 0.30268,0 0.66358,0.145521 0.71596,0.745067 z"
       style="font-size:5.82083px;line-height:1.25;font-family:'Latin Modern Mono';-inkscape-font-specification:'Latin Modern Mono';stroke-width:0.264583"
       id="path673" />
  </g>
</svg>
